Coordinates
nRows=5
nColumns=24

# SIMM Motion File Header:
name Coordinates
datacolumns 24
datarows 5
otherdata 1
range 0.87500000000000000000 0.87900000000000000000

Units are S.I. units (second, meters, Newtons, ...)
Angles are in degrees.

endheader
time	pelvis_tx	pelvis_ty	pelvis_tz	pelvis_tilt	pelvis_list	pelvis_rotation	hip_flexion_r	hip_adduction_r	hip_rotation_r	knee_angle_r	ankle_angle_r	subtalar_angle_r	mtp_angle_r	hip_flexion_l	hip_adduction_l	hip_rotation_l	knee_angle_l	ankle_angle_l	subtalar_angle_l	mtp_angle_l	lumbar_extension	lumbar_bending	lumbar_rotation
      0.87500000000000000000	      0.60472496284428023000	      1.03180325043607570000	      0.03347367635018057300	      5.00245801094827500000	     -1.79093026050882150000	      3.13996416606267200000	      9.39066793164405840000	      2.31837576614572830000	     -6.91562965019478510000	    -19.99759808171446800000	      5.54500848153690210000	      0.02401810129360066500	      0.05254454332268392000	      5.79113746281480870000	     -6.99784323390361610000	     -4.13554775923407370000	    -67.39460971986721900000	     -5.22052048062433820000	      0.01803526169371707700	     -0.08510803490118121200	    -15.34960388586213600000	      4.90791734537717250000	     -3.52678650154653140000
      0.87600000000000000000	      0.60467207999707906000	      1.03199266113354420000	      0.03365148408756227900	      5.00804926169810650000	     -1.78809044743174830000	      3.12663721725329950000	      9.27939587081510810000	      2.33630137835055680000	     -6.89803484193920990000	    -19.92173492822820100000	      5.57086551438376180000	      0.02431067980340550400	      0.05209439872681095200	      5.93147588159094320000	     -7.00148930757126920000	     -4.14785828429678460000	    -67.49237787547311000000	     -5.14082914077501660000	      0.01797259088765366600	     -0.08487944171825824400	    -15.35582113376855600000	      4.89618039231195290000	     -3.48886587810001460000
      0.87700000000000000000	      0.60461840671251943000	      1.03218165120236070000	      0.03382812320620367400	      5.01356887254965770000	     -1.78462988514434740000	      3.11307039023286200000	      9.16812136218950440000	      2.35345923473990700000	     -6.88007098269643880000	    -19.84562306706990500000	      5.59637592103796240000	      0.02460458207467806600	      0.05163574223225698300	      6.07117425718973710000	     -7.00359019219951230000	     -4.15925569763691260000	    -67.58697818784389700000	     -5.06019247368766930000	      0.01790923936233657400	     -0.08464698047151772400	    -15.36206919884934900000	      4.88374013251657240000	     -3.45094812478354430000
      0.87800000000000000000	      0.60456394334224695000	      1.03237018437696610000	      0.03400358978717485400	      5.01901381179033910000	     -1.78055569091764250000	      3.09926302685491750000	      9.05685437831543890000	      2.36985436672945140000	     -6.86174199728356000000	    -19.76927553759349700000	      5.62154607646477620000	      0.02490077199677402000	      0.05116926672132723900	      6.21023891535809010000	     -7.00415802707715330000	     -4.16975551953293880000	    -67.67842061002021100000	     -4.97867488563316660000	      0.01784521912747622300	     -0.08441075695332511700	    -15.36834443262453600000	      4.87060608445989110000	     -3.41303412335311360000
      0.87900000000000000000	      0.60450869042964506000	      1.03255822421938850000	      0.03417788033432422200	      5.02438114527656940000	     -1.77587518590220130000	      3.08521458545653230000	      8.94560472027038320000	      2.38549199882964210000	     -6.84305199135692540000	    -19.69270494734211900000	      5.64638101449116010000	      0.02520303184071369000	      0.05069826267873247400	      6.34867607616150660000	     -7.00320565210358210000	     -4.17937345343547140000	    -67.76671513442559600000	     -4.89634011610001970000	      0.01778050102535435800	     -0.08417087682753250600	    -15.37464325038065700000	      4.85678794040759070000	     -3.37512478158279540000
